<svg width="328" height="49" viewBox="0 0 328 49" fill="none" xmlns="http://www.w3.org/2000/svg">
<path d="M44.9654 5.00662C44.9654 3.31812 46.1917 2.05176 47.8268 2.05176C49.4619 2.05176 50.6883 3.31812 50.6883 5.00662V23.5801C50.6883 32.4447 53.9585 36.2438 62.9516 36.2438H70.3095C71.9446 36.2438 73.171 37.5102 73.171 39.1987C73.171 40.8871 71.9446 42.1535 70.3095 42.1535H62.5428C51.5058 42.1535 45.3742 35.8217 45.3742 24.4243L44.9654 5.00662ZM120.589 39.1987V20.2031C120.589 8.80574 126.721 2.47388 137.758 2.47388H141.437C152.474 2.47388 158.605 8.80574 158.605 20.2031V39.1987C158.605 40.8871 157.379 42.1535 155.744 42.1535C154.109 42.1535 152.882 40.8871 152.882 39.1987V20.6252C152.882 11.7606 149.612 7.96149 140.619 7.96149H138.575C129.582 7.96149 126.312 11.3385 126.312 20.6252V39.1987C126.312 40.8871 125.086 42.1535 123.45 42.1535C121.815 42.1535 120.589 41.3093 120.589 39.1987ZM0 40.465V20.2031C0 8.80574 6.13165 2.47388 17.1686 2.47388H20.8476C31.4758 2.47388 38.0162 8.80574 38.0162 19.3588C38.0162 29.9119 31.4758 36.2438 20.8476 36.2438H15.5335C13.8984 36.2438 12.6721 34.9774 12.6721 33.2889C12.6721 31.6004 13.8984 30.334 15.5335 30.334H20.8476C28.2056 30.334 32.2933 26.9571 32.2933 19.3588C32.2933 11.7606 28.2056 8.38361 20.4388 8.38361H17.5774C8.58431 8.38361 5.3141 11.7606 5.3141 21.0473V40.8871C5.3141 42.5756 4.08777 43.842 2.45267 43.842C1.22634 43.4199 0 42.1535 0 40.465ZM81.3465 20.6252V23.1579C81.3465 32.0225 84.6167 35.8216 93.6098 35.8216H96.0624C105.056 35.8216 108.326 32.4447 108.326 23.1579V20.6252C108.326 11.7606 105.056 7.96149 96.0624 7.96149H93.6098C84.6167 8.38361 81.3465 11.7606 81.3465 20.6252ZM183.132 2.47388H186.811C197.848 2.47388 203.979 8.80574 203.979 20.2031V27.3792C203.979 29.0677 202.753 30.334 201.118 30.334C199.483 30.334 198.257 29.0677 198.257 27.3792V21.0473C198.257 12.1827 194.986 8.38361 185.993 8.38361H183.541C174.547 8.38361 171.277 11.7606 171.277 21.0473V23.5801C171.277 32.4447 174.547 36.2438 183.541 36.2438H197.439C201.936 36.2438 203.162 37.088 205.206 39.6208L207.658 42.1535C208.885 43.4199 208.885 45.1084 207.658 46.3747C206.432 47.6411 204.797 47.6411 203.571 46.3747L200.709 43.4199C199.892 42.5756 199.483 42.5756 197.439 42.5756H182.723C171.686 42.5756 165.554 36.2438 165.554 24.8464V21.0473C165.554 8.80573 172.095 2.47388 183.132 2.47388ZM75.6236 24.0022V20.2031C75.6236 8.80574 81.7553 2.47388 92.7922 2.47388H96.4712C107.508 2.47388 113.64 8.80574 113.64 20.2031V24.0022C113.64 35.3995 107.508 41.7314 96.4712 41.7314H92.7922C81.7553 42.1535 75.6236 35.3995 75.6236 24.0022Z" fill="black"/>
<rect x="235.221" y="1.36621" width="91.7793" height="46.5065" rx="8" stroke="black" stroke-width="2"/>
<path d="M263.598 34.8537V30.0343H252.603L252.007 28.3795L263.806 14.3858H265.862V28.1182H269.11V30.0343H265.862V34.8537H263.598ZM254.838 28.1182H263.598V17.6375L254.838 28.1182Z" fill="black"/>
<path d="M287.731 32.1537C286.102 34.186 283.976 35.2021 281.354 35.2021C278.732 35.2021 276.606 34.1957 274.977 32.1827C273.368 30.1505 272.564 27.6537 272.564 24.6924C272.564 21.7698 273.378 19.2923 275.007 17.2601C276.656 15.2084 278.791 14.1826 281.414 14.1826C284.036 14.1826 286.151 15.1988 287.76 17.231C289.369 19.2439 290.174 21.7311 290.174 24.6924C290.174 27.615 289.359 30.1021 287.731 32.1537ZM276.795 30.644C277.987 32.2892 279.526 33.1118 281.414 33.1118C283.301 33.1118 284.82 32.2989 285.972 30.6731C287.145 29.0279 287.731 27.0343 287.731 24.6924C287.731 22.3891 287.135 20.4149 285.943 18.7697C284.771 17.1052 283.241 16.273 281.354 16.273C279.467 16.273 277.937 17.0955 276.765 18.7407C275.593 20.3665 275.007 22.3504 275.007 24.6924C275.007 26.9956 275.603 28.9795 276.795 30.644Z" fill="black"/>
<path d="M309.031 32.1537C307.402 34.186 305.276 35.2021 302.654 35.2021C300.032 35.2021 297.907 34.1957 296.278 32.1827C294.669 30.1505 293.864 27.6537 293.864 24.6924C293.864 21.7698 294.679 19.2923 296.307 17.2601C297.956 15.2084 300.092 14.1826 302.714 14.1826C305.336 14.1826 307.452 15.1988 309.061 17.231C310.67 19.2439 311.474 21.7311 311.474 24.6924C311.474 27.615 310.66 30.1021 309.031 32.1537ZM298.095 30.644C299.287 32.2892 300.827 33.1118 302.714 33.1118C304.601 33.1118 306.121 32.2989 307.273 30.6731C308.445 29.0279 309.031 27.0343 309.031 24.6924C309.031 22.3891 308.435 20.4149 307.243 18.7697C306.071 17.1052 304.541 16.273 302.654 16.273C300.767 16.273 299.237 17.0955 298.065 18.7407C296.893 20.3665 296.307 22.3504 296.307 24.6924C296.307 26.9956 296.903 28.9795 298.095 30.644Z" fill="black"/>
</svg>
