<svg width="85" height="51" viewBox="0 0 85 51" fill="none" xmlns="http://www.w3.org/2000/svg">
<mask id="path-1-outside-1_285_1148" maskUnits="userSpaceOnUse" x="0" y="0.00195312" width="86" height="52" fill="black">
<rect fill="white" y="0.00195312" width="86" height="52"/>
<path d="M21.909 50.83C15.653 50.83 10.593 48.461 6.729 43.723C2.865 38.939 0.933 32.982 0.933 25.852C0.933 18.814 2.888 12.903 6.798 8.11895C10.754 3.28895 15.837 0.873952 22.047 0.873952C28.257 0.873952 33.294 3.26595 37.158 8.04995C41.068 12.834 43.023 18.768 43.023 25.852C43.023 32.89 41.045 38.824 37.089 43.654C33.179 48.438 28.119 50.83 21.909 50.83ZM13.077 38.203C15.377 41.515 18.367 43.171 22.047 43.171C25.727 43.171 28.671 41.538 30.879 38.272C33.133 34.96 34.26 30.82 34.26 25.852C34.26 20.976 33.11 16.882 30.81 13.57C28.51 10.212 25.543 8.53295 21.909 8.53295C18.229 8.53295 15.262 10.189 13.008 13.501C10.8 16.767 9.696 20.884 9.696 25.852C9.696 30.728 10.823 34.845 13.077 38.203ZM67.7158 50.83C60.0338 50.83 53.8698 48.001 49.2238 42.343L55.1578 36.823C58.7458 41.055 62.9778 43.171 67.8538 43.171C70.2918 43.171 72.2928 42.504 73.8568 41.17C75.4208 39.79 76.2028 37.973 76.2028 35.719C76.2028 33.373 75.1908 31.556 73.1668 30.268C71.1888 28.934 68.4978 28.267 65.0938 28.267H61.1608L59.7808 22.954L72.8218 9.08495H51.9148V1.70195H83.8618V8.04995L70.4068 21.85C74.6388 22.448 78.0658 23.874 80.6878 26.128C83.3098 28.336 84.6208 31.487 84.6208 35.581C84.6208 40.043 83.0338 43.7 79.8598 46.552C76.7318 49.404 72.6838 50.83 67.7158 50.83Z"/>
</mask>
<path d="M6.729 43.723L6.34002 44.0371L6.34152 44.039L6.729 43.723ZM6.798 8.11895L6.41119 7.80213L6.41086 7.80253L6.798 8.11895ZM37.158 8.04995L36.769 8.36412L36.7709 8.36637L37.158 8.04995ZM37.089 43.654L36.7022 43.3371L36.7019 43.3375L37.089 43.654ZM13.077 38.203L12.6618 38.4816L12.6663 38.4882L13.077 38.203ZM30.879 38.272L30.4656 37.9906L30.4648 37.9919L30.879 38.272ZM30.81 13.57L30.3975 13.8525L30.3993 13.8552L30.81 13.57ZM13.008 13.5009L12.5946 13.2196L12.5938 13.2209L13.008 13.5009ZM21.909 50.33C15.7992 50.33 10.883 48.0254 7.11648 43.4069L6.34152 44.039C10.303 48.8965 15.5068 51.33 21.909 51.33V50.33ZM7.11797 43.4088C3.33697 38.7276 1.433 32.8867 1.433 25.852H0.433C0.433 33.0772 2.39303 39.1504 6.34003 44.0371L7.11797 43.4088ZM1.433 25.852C1.433 18.9123 3.35818 13.1178 7.18514 8.43537L6.41086 7.80253C2.41782 12.6881 0.433 18.7156 0.433 25.852H1.433ZM7.18481 8.43577C11.0464 3.721 15.9878 1.37395 22.047 1.37395V0.373952C15.6862 0.373952 10.4616 2.85691 6.41119 7.80213L7.18481 8.43577ZM22.047 1.37395C28.1077 1.37395 33.001 3.69899 36.769 8.36412L37.547 7.73578C33.587 2.83292 28.4063 0.373952 22.047 0.373952V1.37395ZM36.7709 8.36637C40.5973 13.0482 42.523 18.8655 42.523 25.852H43.523C43.523 18.6704 41.5387 12.6197 37.5451 7.73353L36.7709 8.36637ZM42.523 25.852C42.523 32.79 40.5757 38.6078 36.7022 43.3371L37.4758 43.9708C41.5143 39.0401 43.523 32.9899 43.523 25.852H42.523ZM36.7019 43.3375C32.8874 48.0047 27.9698 50.33 21.909 50.33V51.33C28.2682 51.33 33.4706 48.8712 37.4761 43.9704L36.7019 43.3375ZM12.6663 38.4882C15.0493 41.9196 18.1856 43.671 22.047 43.671V42.671C18.5484 42.671 15.7047 41.1103 13.4877 37.9178L12.6663 38.4882ZM22.047 43.671C25.9066 43.671 29.0001 41.9439 31.2932 38.552L30.4648 37.9919C28.3419 41.132 25.5474 42.671 22.047 42.671V43.671ZM31.2924 38.5533C33.6151 35.1403 34.76 30.896 34.76 25.852H33.76C33.76 30.7439 32.6509 34.7796 30.4656 37.9906L31.2924 38.5533ZM34.76 25.852C34.76 20.8957 33.5901 16.6967 31.2207 13.2848L30.3993 13.8552C32.6299 17.0672 33.76 21.0562 33.76 25.852H34.76ZM31.2225 13.2874C28.8424 9.81239 25.7298 8.03295 21.909 8.03295V9.03295C25.3562 9.03295 28.1776 10.6115 30.3975 13.8525L31.2225 13.2874ZM21.909 8.03295C18.0469 8.03295 14.932 9.78512 12.5946 13.2196L13.4214 13.7823C15.592 10.5928 18.4111 9.03295 21.909 9.03295V8.03295ZM12.5938 13.2209C10.3169 16.5888 9.196 20.8101 9.196 25.852H10.196C10.196 20.9578 11.2831 16.9451 13.4222 13.781L12.5938 13.2209ZM9.196 25.852C9.196 30.8065 10.342 35.0256 12.6619 38.4816L13.4921 37.9243C11.304 34.6644 10.196 30.6494 10.196 25.852H9.196ZM49.2238 42.343L48.8833 41.9769L48.5391 42.297L48.8374 42.6603L49.2238 42.343ZM55.1578 36.823L55.5392 36.4996L55.2006 36.1003L54.8173 36.4569L55.1578 36.823ZM73.8568 41.17L74.1814 41.5504L74.1876 41.5449L73.8568 41.17ZM73.1668 30.268L72.8872 30.6826L72.8984 30.6898L73.1668 30.268ZM61.1608 28.267L60.6769 28.3927L60.7741 28.767H61.1608V28.267ZM59.7808 22.954L59.4166 22.6114L59.2275 22.8125L59.2969 23.0797L59.7808 22.954ZM72.8218 9.08495L73.1861 9.42746L73.9783 8.58495H72.8218V9.08495ZM51.9148 9.08495H51.4148V9.58495H51.9148V9.08495ZM51.9148 1.70195V1.20195H51.4148V1.70195H51.9148ZM83.8618 1.70195H84.3618V1.20195H83.8618V1.70195ZM83.8618 8.04995L84.2198 8.399L84.3618 8.25336V8.04995H83.8618ZM70.4068 21.85L70.0488 21.5009L69.3603 22.207L70.3369 22.345L70.4068 21.85ZM80.6878 26.128L80.3619 26.5071L80.3658 26.5104L80.6878 26.128ZM79.8598 46.552L79.5256 46.18L79.523 46.1825L79.8598 46.552ZM67.7158 50.33C60.175 50.33 54.156 47.5616 49.6103 42.0257L48.8374 42.6603C53.5836 48.4403 59.8927 51.33 67.7158 51.33V50.33ZM49.5644 42.709L55.4984 37.189L54.8173 36.4569L48.8833 41.9769L49.5644 42.709ZM54.7765 37.1463C58.4448 41.4731 62.8097 43.671 67.8538 43.671V42.671C63.146 42.671 59.0469 40.6368 55.5392 36.4996L54.7765 37.1463ZM67.8538 43.671C70.3876 43.671 72.5106 42.9754 74.1813 41.5504L73.5324 40.7895C72.0751 42.0325 70.1961 42.671 67.8538 42.671V43.671ZM74.1876 41.5449C75.8686 40.0617 76.7028 38.1034 76.7028 35.719H75.7028C75.7028 37.8425 74.9731 39.5182 73.526 40.795L74.1876 41.5449ZM76.7028 35.719C76.7028 33.1974 75.5995 31.2234 73.4353 29.8461L72.8984 30.6898C74.7821 31.8885 75.7028 33.5485 75.7028 35.719H76.7028ZM73.4464 29.8534C71.3575 28.4446 68.5567 27.767 65.0938 27.767V28.767C68.4389 28.767 71.0202 29.4233 72.8873 30.6825L73.4464 29.8534ZM65.0938 27.767H61.1608V28.767H65.0938V27.767ZM61.6448 28.1413L60.2648 22.8283L59.2969 23.0797L60.6769 28.3927L61.6448 28.1413ZM60.1451 23.2965L73.1861 9.42746L72.4576 8.74244L59.4166 22.6114L60.1451 23.2965ZM72.8218 8.58495H51.9148V9.58495H72.8218V8.58495ZM52.4148 9.08495V1.70195H51.4148V9.08495H52.4148ZM51.9148 2.20195H83.8618V1.20195H51.9148V2.20195ZM83.3618 1.70195V8.04995H84.3618V1.70195H83.3618ZM83.5038 7.7009L70.0488 21.5009L70.7648 22.199L84.2198 8.399L83.5038 7.7009ZM70.3369 22.345C74.4966 22.9328 77.8278 24.3287 80.3619 26.5071L81.0138 25.7488C78.3039 23.4192 74.7811 21.9631 70.4768 21.3549L70.3369 22.345ZM80.3658 26.5104C82.8528 28.6048 84.1208 31.6028 84.1208 35.581H85.1208C85.1208 31.3711 83.7669 28.0671 81.0099 25.7455L80.3658 26.5104ZM84.1208 35.581C84.1208 39.9084 82.5888 43.4277 79.5257 46.18L80.194 46.9239C83.4789 43.9722 85.1208 40.1775 85.1208 35.581H84.1208ZM79.523 46.1825C76.5028 48.9362 72.5822 50.33 67.7158 50.33V51.33C72.7855 51.33 76.9609 49.8717 80.1967 46.9214L79.523 46.1825Z" fill="white" mask="url(#path-1-outside-1_285_1148)"/>
</svg>
