<svg width="21" height="13" viewBox="0 0 21 13" fill="none" xmlns="http://www.w3.org/2000/svg">
<path d="M13.8502 12.588L20.106 6.87103C20.1885 6.79599 20.2481 6.70255 20.2788 6.59998C20.3148 6.491 20.3177 6.37513 20.2873 6.26475C20.2569 6.15436 20.1942 6.05359 20.106 5.97319L13.8502 0.255521C13.7199 0.136371 13.5432 0.0693973 13.3589 0.0693338C13.1746 0.0692703 12.9978 0.136122 12.8674 0.255182C12.737 0.374242 12.6637 0.535758 12.6636 0.704198C12.6636 0.872638 12.7367 1.0342 12.867 1.15335L17.9365 5.78685L1.5417 5.78685C1.4485 5.78407 1.35564 5.79844 1.26865 5.82912C1.18165 5.85979 1.10229 5.90613 1.03529 5.9654C0.968288 6.02466 0.915009 6.09563 0.878624 6.17409C0.842238 6.25255 0.823487 6.3369 0.823487 6.42211C0.823487 6.50733 0.842238 6.59167 0.878624 6.67013C0.91501 6.74859 0.968288 6.81956 1.03529 6.87882C1.10229 6.93809 1.18165 6.98444 1.26865 7.01511C1.35564 7.04578 1.4485 7.06015 1.5417 7.05737L17.9365 7.05737L12.867 11.6902C12.7367 11.8093 12.6636 11.9709 12.6636 12.1393C12.6637 12.3078 12.737 12.4693 12.8674 12.5884C12.9978 12.7074 13.1746 12.7743 13.3589 12.7742C13.5432 12.7741 13.7199 12.7072 13.8502 12.588Z" fill="black"/>
</svg>
