<svg width="21" height="13" viewBox="0 0 21 13" fill="none" xmlns="http://www.w3.org/2000/svg">
<path d="M7.14979 0.408073L0.893955 6.12507C0.81149 6.2001 0.751933 6.29354 0.721191 6.39611C0.685211 6.50509 0.682277 6.62096 0.712703 6.73134C0.743129 6.84173 0.805774 6.9425 0.893955 7.0229L7.14979 12.7406C7.28007 12.8597 7.45681 12.9267 7.64113 12.9268C7.82544 12.9268 8.00224 12.86 8.13262 12.7409C8.263 12.6219 8.33628 12.4603 8.33635 12.2919C8.33642 12.1235 8.26327 11.9619 8.13299 11.8427L3.06351 7.20924L19.4583 7.20924C19.5515 7.21202 19.6444 7.19765 19.7314 7.16698C19.8183 7.13631 19.8977 7.08996 19.9647 7.03069C20.0317 6.97143 20.085 6.90046 20.1214 6.822C20.1578 6.74354 20.1765 6.6592 20.1765 6.57398C20.1765 6.48877 20.1578 6.40442 20.1214 6.32596C20.085 6.2475 20.0317 6.17653 19.9647 6.11727C19.8977 6.058 19.8183 6.01166 19.7314 5.98099C19.6444 5.95031 19.5515 5.93594 19.4583 5.93872L3.06351 5.93872L8.13299 1.30591C8.26327 1.18676 8.33642 1.02519 8.33635 0.856749C8.33628 0.688309 8.263 0.526794 8.13262 0.407733C8.00224 0.288674 7.82544 0.221822 7.64113 0.221886C7.45681 0.22195 7.28007 0.288922 7.14979 0.408073Z" fill="black"/>
</svg>
