<svg width="72" height="81" viewBox="0 0 72 81" fill="none" xmlns="http://www.w3.org/2000/svg">
<path d="M62.7954 81.0004L62.7954 31.1982" stroke="#969696" stroke-width="0.5"/>
<path d="M10.8267 81.0004L10.8267 31.1982" stroke="#969696" stroke-width="0.5"/>
<path d="M72 41.5947L0 41.5947" stroke="#969696" stroke-width="0.5"/>
<path d="M13.5337 38.9042L8.12012 44.377" stroke="#969696" stroke-width="0.5"/>
<path d="M65.5014 38.9042L60.0879 44.377" stroke="#969696" stroke-width="0.5"/>
<path d="M18.4362 19.12C17.5402 19.12 16.7962 18.9 16.2042 18.46C15.6122 18.012 15.3162 17.436 15.3162 16.732C15.3162 16.26 15.4882 15.844 15.8322 15.484C16.1762 15.116 16.6242 14.84 17.1762 14.656C16.1282 14.232 15.6042 13.572 15.6042 12.676C15.6042 12.044 15.8882 11.52 16.4562 11.104C17.0242 10.688 17.6842 10.48 18.4362 10.48C19.1882 10.48 19.8482 10.688 20.4162 11.104C20.9842 11.52 21.2682 12.052 21.2682 12.7C21.2682 13.58 20.7442 14.232 19.6962 14.656C20.2482 14.84 20.6962 15.116 21.0402 15.484C21.3842 15.844 21.5562 16.268 21.5562 16.756C21.5562 17.444 21.2562 18.012 20.6562 18.46C20.0642 18.9 19.3242 19.12 18.4362 19.12ZM16.6362 18.04C17.0842 18.384 17.6842 18.556 18.4362 18.556C19.1882 18.556 19.7882 18.384 20.2362 18.04C20.6842 17.688 20.9082 17.26 20.9082 16.756C20.9082 16.236 20.6682 15.808 20.1882 15.472C19.7082 15.128 19.1242 14.956 18.4362 14.956C17.7402 14.956 17.1522 15.128 16.6722 15.472C16.2002 15.816 15.9642 16.252 15.9642 16.78C15.9642 17.276 16.1882 17.696 16.6362 18.04ZM16.8882 13.948C17.3122 14.268 17.8282 14.428 18.4362 14.428C19.0442 14.428 19.5602 14.268 19.9842 13.948C20.4082 13.62 20.6202 13.196 20.6202 12.676C20.6202 12.204 20.4082 11.816 19.9842 11.512C19.5682 11.2 19.0522 11.044 18.4362 11.044C17.8202 11.044 17.3002 11.2 16.8762 11.512C16.4602 11.824 16.2522 12.22 16.2522 12.7C16.2522 13.204 16.4642 13.62 16.8882 13.948ZM23.1988 19V17.98H23.9908V19H23.1988ZM28.7604 19.12C27.8644 19.12 27.1204 18.9 26.5284 18.46C25.9364 18.012 25.6404 17.436 25.6404 16.732C25.6404 16.26 25.8124 15.844 26.1564 15.484C26.5004 15.116 26.9484 14.84 27.5004 14.656C26.4524 14.232 25.9284 13.572 25.9284 12.676C25.9284 12.044 26.2124 11.52 26.7804 11.104C27.3484 10.688 28.0084 10.48 28.7604 10.48C29.5124 10.48 30.1724 10.688 30.7404 11.104C31.3084 11.52 31.5924 12.052 31.5924 12.7C31.5924 13.58 31.0684 14.232 30.0204 14.656C30.5724 14.84 31.0204 15.116 31.3644 15.484C31.7084 15.844 31.8804 16.268 31.8804 16.756C31.8804 17.444 31.5804 18.012 30.9804 18.46C30.3884 18.9 29.6484 19.12 28.7604 19.12ZM26.9604 18.04C27.4084 18.384 28.0084 18.556 28.7604 18.556C29.5124 18.556 30.1124 18.384 30.5604 18.04C31.0084 17.688 31.2324 17.26 31.2324 16.756C31.2324 16.236 30.9924 15.808 30.5124 15.472C30.0324 15.128 29.4484 14.956 28.7604 14.956C28.0644 14.956 27.4764 15.128 26.9964 15.472C26.5244 15.816 26.2884 16.252 26.2884 16.78C26.2884 17.276 26.5124 17.696 26.9604 18.04ZM27.2124 13.948C27.6364 14.268 28.1524 14.428 28.7604 14.428C29.3684 14.428 29.8844 14.268 30.3084 13.948C30.7324 13.62 30.9444 13.196 30.9444 12.676C30.9444 12.204 30.7324 11.816 30.3084 11.512C29.8924 11.2 29.3764 11.044 28.7604 11.044C28.1444 11.044 27.6244 11.2 27.2004 11.512C26.7844 11.824 26.5764 12.22 26.5764 12.7C26.5764 13.204 26.7884 13.62 27.2124 13.948ZM37.2527 19V12.88H37.8407V13.972C38.0807 13.588 38.3567 13.288 38.6687 13.072C38.9807 12.848 39.3847 12.736 39.8807 12.736C40.8407 12.736 41.5287 13.176 41.9447 14.056C42.4567 13.176 43.1927 12.736 44.1527 12.736C44.8727 12.736 45.4447 12.968 45.8687 13.432C46.2927 13.896 46.5047 14.516 46.5047 15.292V19H45.9167V15.364C45.9167 14.708 45.7567 14.196 45.4367 13.828C45.1167 13.46 44.6727 13.276 44.1047 13.276C43.5687 13.276 43.1127 13.472 42.7367 13.864C42.3607 14.256 42.1727 14.78 42.1727 15.436V19H41.5847V15.328C41.5847 14.696 41.4207 14.196 41.0927 13.828C40.7727 13.46 40.3407 13.276 39.7967 13.276C39.2527 13.276 38.7887 13.488 38.4047 13.912C38.0287 14.336 37.8407 14.856 37.8407 15.472V19H37.2527ZM48.6668 19V12.88H49.2548V13.972C49.4948 13.588 49.7708 13.288 50.0828 13.072C50.3948 12.848 50.7988 12.736 51.2948 12.736C52.2548 12.736 52.9428 13.176 53.3588 14.056C53.8708 13.176 54.6068 12.736 55.5668 12.736C56.2868 12.736 56.8588 12.968 57.2828 13.432C57.7068 13.896 57.9188 14.516 57.9188 15.292V19H57.3308V15.364C57.3308 14.708 57.1708 14.196 56.8508 13.828C56.5308 13.46 56.0868 13.276 55.5188 13.276C54.9828 13.276 54.5268 13.472 54.1508 13.864C53.7748 14.256 53.5868 14.78 53.5868 15.436V19H52.9988V15.328C52.9988 14.696 52.8348 14.196 52.5068 13.828C52.1868 13.46 51.7548 13.276 51.2108 13.276C50.6668 13.276 50.2028 13.488 49.8188 13.912C49.4428 14.336 49.2548 14.856 49.2548 15.472V19H48.6668Z" fill="#484848"/>
</svg>
