<svg width="144" height="81" viewBox="0 0 144 81" fill="none" xmlns="http://www.w3.org/2000/svg">
<path d="M10.9087 81.0004L10.9087 31.1982" stroke="#969696" stroke-width="0.5"/>
<path d="M132.546 81.0004L132.546 31.1982" stroke="#969696" stroke-width="0.5"/>
<path d="M144 41.5947L0 41.5947" stroke="#969696" stroke-width="0.5"/>
<path d="M13.6362 38.9042L8.18164 44.377" stroke="#969696" stroke-width="0.5"/>
<path d="M135.273 38.9042L129.818 44.377" stroke="#969696" stroke-width="0.5"/>
<path d="M51.2912 19V18.532L54.4232 15.7C55.1192 15.068 55.6032 14.544 55.8752 14.128C56.1472 13.704 56.2832 13.272 56.2832 12.832C56.2832 12.304 56.0952 11.872 55.7192 11.536C55.3512 11.2 54.9072 11.032 54.3872 11.032C53.8752 11.032 53.4272 11.16 53.0432 11.416C52.6672 11.672 52.2952 12.064 51.9272 12.592L51.4592 12.28C51.8592 11.672 52.2832 11.22 52.7312 10.924C53.1792 10.628 53.7512 10.48 54.4472 10.48C55.1592 10.48 55.7512 10.704 56.2232 11.152C56.7032 11.592 56.9432 12.144 56.9432 12.808C56.9432 13.36 56.7872 13.864 56.4752 14.32C56.1712 14.776 55.6272 15.36 54.8432 16.072L52.2752 18.4H57.0272V19H51.2912ZM62.0413 19.144C61.0013 19.144 60.1613 18.724 59.5213 17.884C58.8893 17.036 58.5733 16.008 58.5733 14.8C58.5733 14.024 58.7133 13.308 58.9933 12.652C59.2733 11.996 59.6813 11.468 60.2173 11.068C60.7613 10.66 61.3773 10.456 62.0653 10.456C63.1053 10.456 63.9413 10.88 64.5733 11.728C65.2133 12.568 65.5333 13.592 65.5333 14.8C65.5333 15.576 65.3933 16.292 65.1133 16.948C64.8333 17.604 64.4213 18.136 63.8773 18.544C63.3413 18.944 62.7293 19.144 62.0413 19.144ZM60.0133 17.452C60.5413 18.204 61.2253 18.58 62.0653 18.58C62.9053 18.58 63.5853 18.208 64.1053 17.464C64.6253 16.712 64.8853 15.824 64.8853 14.8C64.8853 13.776 64.6213 12.892 64.0933 12.148C63.5653 11.396 62.8813 11.02 62.0413 11.02C61.2013 11.02 60.5213 11.392 60.0013 12.136C59.4813 12.88 59.2213 13.768 59.2213 14.8C59.2213 15.816 59.4853 16.7 60.0133 17.452ZM71.0265 19V12.88H71.6145V13.972C71.8545 13.588 72.1305 13.288 72.4425 13.072C72.7545 12.848 73.1585 12.736 73.6545 12.736C74.6145 12.736 75.3025 13.176 75.7185 14.056C76.2305 13.176 76.9665 12.736 77.9265 12.736C78.6465 12.736 79.2185 12.968 79.6425 13.432C80.0665 13.896 80.2785 14.516 80.2785 15.292V19H79.6905V15.364C79.6905 14.708 79.5305 14.196 79.2105 13.828C78.8905 13.46 78.4465 13.276 77.8785 13.276C77.3425 13.276 76.8865 13.472 76.5105 13.864C76.1345 14.256 75.9465 14.78 75.9465 15.436V19H75.3585V15.328C75.3585 14.696 75.1945 14.196 74.8665 13.828C74.5465 13.46 74.1145 13.276 73.5705 13.276C73.0265 13.276 72.5625 13.488 72.1785 13.912C71.8025 14.336 71.6145 14.856 71.6145 15.472V19H71.0265ZM82.4405 19V12.88H83.0285V13.972C83.2685 13.588 83.5445 13.288 83.8565 13.072C84.1685 12.848 84.5725 12.736 85.0685 12.736C86.0285 12.736 86.7165 13.176 87.1325 14.056C87.6445 13.176 88.3805 12.736 89.3405 12.736C90.0605 12.736 90.6325 12.968 91.0565 13.432C91.4805 13.896 91.6925 14.516 91.6925 15.292V19H91.1045V15.364C91.1045 14.708 90.9445 14.196 90.6245 13.828C90.3045 13.46 89.8605 13.276 89.2925 13.276C88.7565 13.276 88.3005 13.472 87.9245 13.864C87.5485 14.256 87.3605 14.78 87.3605 15.436V19H86.7725V15.328C86.7725 14.696 86.6085 14.196 86.2805 13.828C85.9605 13.46 85.5285 13.276 84.9845 13.276C84.4405 13.276 83.9765 13.488 83.5925 13.912C83.2165 14.336 83.0285 14.856 83.0285 15.472V19H82.4405Z" fill="#484848"/>
</svg>
