<svg width="76" height="633" viewBox="0 0 76 633" fill="none" xmlns="http://www.w3.org/2000/svg">
<path d="M75.9999 622.643L26.4836 622.643" stroke="#939393" stroke-width="0.5"/>
<path d="M75.9999 11.4512L26.4836 11.4512" stroke="#939393" stroke-width="0.5"/>
<path d="M36.8223 1.14441e-05L36.8223 633" stroke="#939393" stroke-width="0.5"/>
<path d="M34.1483 619.919L39.5896 625.371" stroke="#939393" stroke-width="0.5"/>
<path d="M34.1483 8.72554L39.5896 14.1777" stroke="#939393" stroke-width="0.5"/>
<path d="M22 338.303L14.188 338.303L14.74 339.923L14.248 340.091L13.54 338.171L13.54 337.691L22 337.691L22 338.303ZM22.144 332.183C22.144 333.223 21.724 334.063 20.884 334.703C20.036 335.335 19.008 335.651 17.8 335.651C17.024 335.651 16.308 335.511 15.652 335.231C14.996 334.951 14.468 334.543 14.068 334.007C13.66 333.463 13.456 332.847 13.456 332.159C13.456 331.119 13.88 330.283 14.728 329.651C15.568 329.011 16.592 328.691 17.8 328.691C18.576 328.691 19.292 328.831 19.948 329.111C20.604 329.391 21.136 329.803 21.544 330.347C21.944 330.883 22.144 331.495 22.144 332.183ZM20.452 334.211C21.204 333.683 21.58 332.999 21.58 332.159C21.58 331.319 21.208 330.639 20.464 330.119C19.712 329.599 18.824 329.339 17.8 329.339C16.776 329.339 15.892 329.603 15.148 330.131C14.396 330.659 14.02 331.343 14.02 332.183C14.02 333.023 14.392 333.703 15.136 334.223C15.88 334.743 16.768 335.003 17.8 335.003C18.816 335.003 19.7 334.739 20.452 334.211ZM22.144 323.664C22.144 324.704 21.724 325.544 20.884 326.184C20.036 326.816 19.008 327.132 17.8 327.132C17.024 327.132 16.308 326.992 15.652 326.712C14.996 326.432 14.468 326.024 14.068 325.488C13.66 324.944 13.456 324.328 13.456 323.64C13.456 322.6 13.88 321.764 14.728 321.132C15.568 320.492 16.592 320.172 17.8 320.172C18.576 320.172 19.292 320.312 19.948 320.592C20.604 320.872 21.136 321.284 21.544 321.828C21.944 322.364 22.144 322.976 22.144 323.664ZM20.452 325.692C21.204 325.164 21.58 324.48 21.58 323.64C21.58 322.8 21.208 322.12 20.464 321.6C19.712 321.08 18.824 320.82 17.8 320.82C16.776 320.82 15.892 321.084 15.148 321.612C14.396 322.14 14.02 322.824 14.02 323.664C14.02 324.504 14.392 325.184 15.136 325.704C15.88 326.224 16.768 326.484 17.8 326.484C18.816 326.484 19.7 326.22 20.452 325.692ZM22 314.679L15.88 314.679L15.88 314.091L16.972 314.091C16.588 313.851 16.288 313.575 16.072 313.263C15.848 312.951 15.736 312.547 15.736 312.051C15.736 311.091 16.176 310.403 17.056 309.987C16.176 309.475 15.736 308.739 15.736 307.779C15.736 307.059 15.968 306.487 16.432 306.063C16.896 305.639 17.516 305.427 18.292 305.427L22 305.427L22 306.015L18.364 306.015C17.708 306.015 17.196 306.175 16.828 306.495C16.46 306.815 16.276 307.259 16.276 307.827C16.276 308.363 16.472 308.819 16.864 309.195C17.256 309.571 17.78 309.759 18.436 309.759L22 309.759L22 310.347L18.328 310.347C17.696 310.347 17.196 310.511 16.828 310.839C16.46 311.159 16.276 311.591 16.276 312.135C16.276 312.679 16.488 313.143 16.912 313.527C17.336 313.903 17.856 314.091 18.472 314.091L22 314.091L22 314.679ZM22 303.265L15.88 303.265L15.88 302.677L16.972 302.677C16.588 302.437 16.288 302.161 16.072 301.849C15.848 301.537 15.736 301.133 15.736 300.637C15.736 299.677 16.176 298.989 17.056 298.573C16.176 298.061 15.736 297.325 15.736 296.365C15.736 295.645 15.968 295.073 16.432 294.649C16.896 294.225 17.516 294.013 18.292 294.013L22 294.013L22 294.601L18.364 294.601C17.708 294.601 17.196 294.761 16.828 295.081C16.46 295.401 16.276 295.845 16.276 296.413C16.276 296.949 16.472 297.405 16.864 297.781C17.256 298.157 17.78 298.345 18.436 298.345L22 298.345L22 298.933L18.328 298.933C17.696 298.933 17.196 299.097 16.828 299.425C16.46 299.745 16.276 300.177 16.276 300.721C16.276 301.265 16.488 301.729 16.912 302.113C17.336 302.489 17.856 302.677 18.472 302.677L22 302.677L22 303.265Z" fill="#484848"/>
</svg>
